<?xml version="1.0" standalone="no"?>
<!DOCTYPE svg PUBLIC "-//W3C//DTD SVG 20010904//EN"
 "http://www.w3.org/TR/2001/REC-SVG-20010904/DTD/svg10.dtd">
<svg version="1.0" xmlns="http://www.w3.org/2000/svg"
 width="700.000000pt" height="700.000000pt" viewBox="0 0 700.000000 700.000000"
 preserveAspectRatio="xMidYMid meet">
<metadata>
Created by potrace 1.14, written by Peter Selinger 2001-2017
</metadata>
<g transform="translate(0.000000,700.000000) scale(0.100000,-0.100000)"
fill="#000000" stroke="none">
<path d="M3803 6458 c-23 -51 -53 -119 -67 -150 -19 -43 -22 -58 -12 -58 7 0
23 23 34 50 l21 51 62 -3 61 -3 20 -52 c11 -29 24 -53 29 -53 5 0 9 3 9 8 1
16 -103 302 -110 302 -3 0 -25 -42 -47 -92z m72 -26 c9 -29 15 -56 12 -58 -3
-3 -25 -4 -50 -2 l-45 3 26 63 c14 34 29 59 33 55 3 -5 14 -32 24 -61z"/>
<path d="M3254 6507 c-32 -28 -37 -78 -10 -105 9 -9 44 -26 78 -37 67 -22 84
-39 75 -77 -8 -31 -45 -48 -102 -48 -25 0 -45 -4 -45 -10 0 -15 97 -12 129 5
31 16 41 33 41 73 0 37 -26 60 -89 78 -70 20 -81 29 -81 65 0 38 33 59 92 59
27 0 48 5 48 10 0 6 -24 10 -54 10 -43 0 -61 -5 -82 -23z"/>
<path d="M4115 6507 c-12 -56 -36 -269 -31 -274 10 -11 15 2 23 58 8 53 9 54
44 57 l37 3 28 -71 c15 -39 32 -73 36 -77 21 -12 18 9 -10 74 l-29 68 31 15
c20 10 34 26 40 48 18 64 -23 102 -122 115 -37 4 -43 3 -47 -16z m126 -28 c13
-6 19 -21 19 -42 0 -60 -22 -74 -108 -69 l-33 2 6 53 c10 80 10 80 56 73 23
-4 50 -11 60 -17z"/>
<path d="M2978 6472 c-58 -13 -68 -18 -68 -36 1 -26 55 -265 62 -272 9 -8 158
28 158 39 0 6 -15 7 -37 3 -116 -21 -110 -22 -117 20 -4 22 -10 49 -13 61 -4
19 1 23 54 34 56 12 82 24 72 33 -2 3 -31 -2 -64 -10 -33 -7 -63 -14 -66 -14
-4 0 -10 17 -13 38 -4 20 -9 44 -12 54 -4 12 4 18 28 23 73 15 108 26 108 35
0 12 -7 11 -92 -8z"/>
<path d="M4425 6470 c-7 -12 3 -17 48 -25 22 -4 37 -13 37 -22 0 -8 -13 -68
-30 -133 -34 -136 -34 -133 -18 -128 7 3 26 63 43 134 17 71 35 128 41 128 5
-1 26 -5 47 -8 21 -4 37 -3 37 2 0 12 -199 62 -205 52z"/>
<path d="M2716 6402 c-7 -12 75 -292 86 -292 14 0 8 34 -32 164 -41 135 -44
143 -54 128z"/>
<path d="M4726 6246 c-25 -73 -46 -138 -46 -143 0 -9 124 -53 149 -53 26 0 -2
19 -52 35 -28 10 -56 21 -61 25 -6 6 17 103 29 118 1 1 28 -7 60 -18 65 -23
75 -24 75 -11 0 5 -29 19 -64 31 l-65 21 15 42 c8 23 16 48 19 55 3 9 21 6 69
-12 38 -15 68 -21 71 -15 4 5 0 11 -7 14 -46 17 -132 45 -138 45 -4 0 -28 -60
-54 -134z"/>
<path d="M2530 6308 c-10 -24 -29 -69 -43 -102 l-24 -59 -27 72 c-15 39 -32
71 -37 71 -5 0 -9 -4 -9 -9 0 -20 103 -271 111 -271 13 0 11 9 -11 69 -17 43
-18 56 -8 70 7 9 13 17 14 19 1 2 38 -20 83 -48 44 -29 86 -50 93 -47 7 2 -26
29 -74 61 -49 31 -88 60 -88 65 0 5 9 31 21 58 36 83 39 93 28 93 -5 0 -18
-19 -29 -42z"/>
<path d="M5063 6235 c-27 -19 -37 -59 -22 -88 7 -12 29 -41 50 -64 44 -48 47
-65 19 -93 -26 -26 -56 -25 -109 5 -24 14 -46 23 -48 21 -18 -17 71 -66 120
-66 41 0 77 34 77 73 0 17 -16 44 -45 77 -48 54 -56 87 -29 114 22 23 56 20
99 -9 38 -27 57 -27 36 -1 -17 20 -75 46 -103 46 -13 0 -33 -7 -45 -15z"/>
<path d="M2113 6161 c-23 -11 -49 -31 -59 -46 -37 -56 -9 -164 56 -219 54 -45
141 -31 189 30 53 67 0 209 -92 243 -38 14 -45 14 -94 -8z m128 -37 c25 -22
59 -98 59 -132 0 -78 -110 -131 -173 -82 -32 26 -67 97 -67 139 0 47 16 70 62
91 44 20 86 14 119 -16z"/>
<path d="M5322 5984 c-67 -53 -119 -100 -116 -105 3 -5 18 0 32 11 72 55 65
54 121 20 51 -32 51 -32 44 -73 -9 -62 -9 -69 3 -74 6 -2 19 53 32 144 25 164
25 173 15 173 -5 0 -63 -43 -131 -96z m104 -9 c-5 -36 -14 -65 -19 -65 -5 0
-26 10 -45 22 l-35 22 49 43 c27 23 52 43 55 43 3 0 1 -29 -5 -65z"/>
<path d="M1743 5938 c-42 -30 -67 -80 -59 -122 9 -47 60 -122 95 -140 16 -9
48 -16 70 -16 33 0 49 7 80 36 46 41 57 79 41 131 -37 115 -146 168 -227 111z
m127 -14 c42 -26 80 -91 80 -140 0 -35 -5 -47 -35 -73 -48 -42 -92 -42 -140 0
-46 41 -65 78 -65 126 1 81 88 129 160 87z"/>
<path d="M5595 5815 c-47 -64 -83 -121 -79 -126 5 -9 77 80 146 181 16 24 16
17 11 -137 -4 -111 -3 -163 4 -163 10 0 167 203 175 225 2 6 -1 11 -6 13 -4 2
-42 -43 -83 -100 l-75 -103 8 163 c5 117 4 162 -4 162 -7 0 -50 -52 -97 -115z"/>
<path d="M1477 5735 c-86 -59 -91 -162 -10 -236 40 -38 66 -49 113 -49 34 0
48 7 85 41 25 23 42 46 39 51 -4 5 -23 -7 -43 -26 -66 -64 -139 -57 -196 19
-54 70 -36 156 40 192 19 9 32 20 29 25 -8 13 -16 10 -57 -17z"/>
<path d="M5906 5561 c-90 -44 -135 -70 -127 -76 8 -4 33 2 61 15 l48 23 45
-39 45 -39 -20 -53 c-12 -33 -17 -57 -11 -63 6 -6 32 49 66 139 31 81 57 151
57 155 0 14 -28 4 -164 -62z m109 -27 c-14 -32 -28 -60 -30 -63 -3 -2 -21 11
-40 29 l-36 34 63 32 c35 18 64 31 66 29 2 -1 -9 -29 -23 -61z"/>
<path d="M4710 5490 c-112 -24 -217 -106 -268 -209 -24 -50 -27 -67 -27 -161
0 -95 3 -111 28 -162 76 -154 238 -237 407 -208 163 27 293 164 308 322 l5 58
-54 -3 c-30 -2 -63 -8 -75 -15 -16 -9 -26 -8 -42 4 -12 8 -22 19 -22 24 0 6
-17 25 -37 44 -31 28 -36 37 -25 47 6 7 12 30 12 50 0 29 -6 42 -27 57 -29 21
-29 26 3 123 3 9 -1 19 -10 22 -30 12 -132 16 -176 7z"/>
<path d="M5004 5468 c-41 -13 -62 -65 -44 -109 15 -35 26 -36 86 -7 49 24 51
32 25 101 -11 29 -19 31 -67 15z"/>
<path d="M6149 5342 c-95 -87 -125 -123 -102 -122 16 1 226 207 217 213 -6 3
-57 -38 -115 -91z"/>
<path d="M5058 5312 c-21 -13 -28 -25 -28 -49 0 -39 11 -47 56 -39 29 6 34 11
34 34 0 40 -11 72 -24 71 -6 0 -23 -8 -38 -17z"/>
<path d="M4960 5260 c-13 -24 -5 -40 19 -40 18 0 35 35 25 52 -9 15 -33 8 -44
-12z"/>
<path d="M6332 5263 c-7 -3 -19 -17 -26 -32 -12 -23 -12 -36 1 -92 18 -75 14
-94 -22 -111 -22 -10 -30 -8 -53 9 -15 11 -36 36 -47 56 -11 20 -23 37 -27 37
-32 0 42 -109 84 -124 37 -13 76 0 92 33 13 24 13 35 1 82 -21 77 -19 96 11
116 23 15 29 15 52 2 14 -8 34 -31 45 -51 10 -21 23 -38 28 -38 13 0 11 8 -13
52 -31 54 -82 79 -126 61z"/>
<path d="M5015 5180 c-11 -18 10 -32 41 -28 40 4 38 32 -3 36 -17 2 -34 -2
-38 -8z"/>
<path d="M594 5105 c-268 -58 -486 -270 -566 -551 -19 -65 -22 -103 -22 -219
0 -132 1 -145 32 -235 108 -312 374 -510 685 -510 43 0 131 10 195 22 121 23
275 29 348 15 l42 -8 -13 63 c-7 35 -20 116 -29 182 -8 65 -17 120 -19 122 -2
3 -17 -21 -33 -53 -43 -85 -151 -189 -249 -238 -77 -38 -84 -40 -175 -40 -85
0 -100 3 -141 27 -130 76 -198 226 -219 479 -17 212 14 410 90 574 117 253
314 371 479 289 94 -47 163 -158 207 -332 13 -53 26 -98 29 -100 3 -3 5 15 5
39 0 57 25 262 46 369 8 45 14 83 12 85 -2 2 -30 -1 -63 -7 -69 -11 -147 -4
-260 23 -95 23 -286 25 -381 4z"/>
<path d="M3440 5083 c0 -5 7 -39 15 -78 37 -182 49 -326 49 -640 1 -316 -12
-483 -49 -660 -8 -38 -15 -73 -15 -77 0 -5 100 -8 221 -8 l221 0 -6 33 c-11
65 -19 314 -11 392 l8 80 67 -136 c65 -134 108 -242 130 -326 l11 -43 220 0
219 0 -48 63 c-84 106 -189 297 -282 510 -34 76 -47 97 -59 92 -26 -10 -213
-36 -219 -31 -9 10 29 95 69 156 37 55 90 100 118 100 9 0 11 -15 6 -54 -8
-65 4 -92 50 -112 76 -31 203 -8 281 51 67 52 94 153 57 216 -10 16 -37 39
-61 50 -37 18 -57 21 -130 17 -74 -3 -97 -9 -157 -38 -140 -70 -252 -218 -309
-411 l-25 -84 0 225 c-1 124 4 275 9 335 10 107 46 343 57 371 4 12 -31 14
-216 14 -122 0 -221 -3 -221 -7z"/>
<path d="M1730 4669 c-77 -15 -184 -74 -234 -130 -92 -103 -136 -232 -136
-401 0 -129 12 -190 55 -285 80 -173 226 -263 430 -263 240 0 405 129 465 366
24 94 26 250 5 341 -34 143 -121 266 -231 325 -95 51 -236 70 -354 47z m232
-70 c128 -69 55 -704 -103 -883 -72 -83 -135 -80 -178 8 -49 99 -38 345 24
561 46 159 107 262 180 307 35 21 49 22 77 7z"/>
<path d="M2753 4666 c-169 -43 -290 -168 -339 -349 -22 -82 -28 -213 -14 -297
34 -207 140 -347 307 -406 80 -28 224 -33 309 -10 164 44 290 181 335 366 23
91 18 271 -10 360 -50 165 -150 274 -296 324 -66 23 -224 30 -292 12z m242
-62 c20 -8 50 -67 60 -119 12 -66 7 -246 -10 -351 -50 -315 -169 -518 -277
-473 -174 72 -52 822 152 931 37 19 49 21 75 12z"/>
<path d="M5493 4665 c-129 -36 -252 -127 -317 -233 -59 -97 -88 -201 -89 -317
-2 -212 98 -387 269 -472 140 -70 313 -75 438 -11 98 50 196 178 196 256 0 90
-73 151 -167 138 -54 -7 -125 -37 -171 -72 l-34 -26 31 -32 c62 -64 93 -192
55 -230 -19 -20 -83 -21 -127 -3 -35 15 -97 79 -120 124 -17 31 -42 118 -51
174 l-6 36 65 7 c213 22 443 153 511 292 23 47 26 63 22 128 -3 63 -8 81 -33
118 -36 51 -92 90 -160 113 -69 24 -244 29 -312 10z m198 -54 c50 -40 32 -231
-33 -354 -57 -107 -165 -196 -237 -197 l-24 0 8 92 c17 218 103 410 207 461
42 21 51 21 79 -2z"/>
<path d="M6425 4663 c-309 -66 -408 -311 -201 -500 39 -36 99 -73 203 -124
168 -82 236 -137 254 -202 15 -57 -1 -106 -50 -150 -69 -63 -154 -57 -229 16
-59 57 -62 142 -8 200 l25 27 -44 30 c-86 59 -189 81 -244 53 -52 -27 -75 -64
-74 -121 2 -162 188 -288 443 -299 226 -10 395 64 472 209 19 35 23 58 23 128
0 102 -18 142 -93 212 -60 56 -115 85 -294 153 -76 29 -149 60 -164 70 -39 25
-57 77 -44 126 13 47 85 125 124 135 56 14 136 -21 136 -59 0 -8 -16 -35 -36
-60 -88 -113 0 -211 160 -177 176 36 226 211 84 294 -93 54 -291 72 -443 39z"/>
<path d="M4554 4633 c15 -53 46 -221 57 -307 18 -147 6 -390 -26 -546 -14 -69
-28 -133 -31 -142 -5 -17 10 -18 215 -18 122 0 221 3 221 8 0 4 -14 72 -31
152 -53 257 -51 465 7 740 13 63 24 118 24 123 0 4 -99 7 -221 7 -205 0 -220
-1 -215 -17z"/>
<path d="M3649 3470 c-69 -12 -130 -42 -165 -82 -63 -72 -68 -150 -13 -213 39
-44 87 -58 180 -54 146 8 249 90 249 199 0 110 -108 174 -251 150z"/>
<path d="M624 3425 c-379 -84 -637 -456 -593 -854 35 -313 258 -571 554 -642
117 -27 221 -26 377 5 138 28 228 32 308 15 28 -6 53 -9 55 -7 3 2 -4 53 -15
114 -10 60 -22 142 -26 182 -3 39 -9 72 -13 71 -3 0 -19 -27 -34 -59 -42 -88
-143 -188 -238 -234 -198 -97 -374 -45 -467 139 -79 158 -105 466 -57 690 70
329 297 568 490 516 136 -36 229 -173 278 -411 13 -62 14 -63 20 -30 3 19 11
86 17 149 6 62 20 164 30 224 11 61 18 112 17 113 -1 2 -33 -1 -70 -6 -73 -9
-168 0 -262 24 -74 20 -284 20 -371 1z"/>
<path d="M1838 2998 c-83 -8 -124 -21 -210 -65 -90 -47 -148 -110 -148 -161 0
-91 100 -137 221 -100 75 22 139 116 139 203 0 65 73 87 130 39 60 -51 87
-148 69 -252 -16 -88 -17 -89 -85 -56 -81 39 -210 46 -302 15 -203 -69 -320
-230 -310 -428 4 -66 10 -94 34 -140 92 -180 339 -203 487 -44 l45 48 9 -56 8
-56 222 -3 222 -2 -29 64 c-72 158 -89 304 -61 509 8 57 11 129 8 169 -18 214
-199 342 -449 316z m105 -469 c27 -37 24 -118 -7 -243 -28 -108 -59 -170 -107
-210 -129 -109 -207 127 -109 329 34 70 53 94 106 130 48 32 89 30 117 -6z"/>
<path d="M3130 2991 c-148 -46 -249 -189 -305 -432 l-15 -64 5 94 c4 78 37
273 61 359 l6 22 -221 0 c-121 0 -221 -4 -221 -8 0 -4 9 -50 21 -102 68 -313
63 -567 -18 -897 l-5 -23 222 0 c199 0 222 2 216 16 -31 81 -32 432 -2 569 25
114 57 205 90 254 43 63 62 61 58 -6 -7 -96 35 -128 158 -121 59 4 87 11 130
34 134 73 150 239 27 294 -44 20 -157 26 -207 11z"/>
<path d="M4355 2988 c-175 -33 -309 -169 -360 -363 -24 -92 -22 -263 5 -361
69 -254 276 -391 536 -355 256 36 414 242 414 541 0 169 -48 307 -141 405
-108 115 -283 166 -454 133z m232 -73 c67 -47 79 -288 27 -544 -45 -218 -135
-380 -221 -397 -28 -5 -37 -2 -67 28 -48 48 -60 116 -53 288 14 302 123 579
247 629 35 14 43 13 67 -4z"/>
<path d="M5430 2984 c-152 -33 -295 -143 -358 -274 -126 -266 -55 -582 162
-722 111 -71 252 -100 372 -74 91 19 145 46 209 107 116 110 133 244 38 306
-57 38 -184 13 -270 -53 l-34 -25 26 -31 c66 -79 93 -184 57 -228 -42 -52
-162 -13 -220 73 -16 23 -40 71 -53 107 -22 59 -24 81 -24 230 0 126 4 180 18
230 46 172 155 310 245 310 37 0 52 -17 52 -58 0 -38 -11 -61 -51 -112 -57
-72 -47 -135 28 -171 57 -27 132 -22 209 16 123 60 135 189 27 284 -98 87
-270 121 -433 85z"/>
<path d="M6370 2984 c-128 -34 -239 -104 -269 -168 -24 -51 -19 -85 21 -123
27 -25 36 -28 101 -28 126 0 196 59 218 184 14 77 38 106 80 97 47 -9 77 -35
103 -89 35 -73 42 -139 22 -217 -9 -35 -18 -65 -19 -66 -1 -2 -31 11 -65 28
-108 54 -244 49 -379 -14 -26 -12 -78 -51 -114 -87 -91 -91 -113 -148 -114
-291 0 -120 13 -156 82 -222 55 -54 115 -78 194 -78 108 0 203 45 260 123 l28
38 6 -48 c13 -91 -10 -83 231 -83 118 0 214 1 214 3 0 1 -15 39 -34 82 -67
160 -80 284 -51 491 17 121 13 190 -17 272 -35 94 -135 175 -250 202 -62 14
-184 11 -248 -6z m170 -434 c34 -18 43 -80 26 -178 -20 -115 -40 -176 -76
-239 -93 -161 -224 -87 -207 115 16 193 155 356 257 302z"/>
<path d="M3444 2953 c3 -10 17 -74 31 -143 33 -155 45 -420 25 -563 -10 -82
-42 -243 -56 -289 -5 -17 10 -18 215 -18 142 0 221 4 221 10 0 6 -9 52 -21
103 -63 282 -63 534 1 805 11 46 20 90 20 98 0 12 -37 14 -221 14 -205 0 -220
-1 -215 -17z"/>
</g>
</svg>
